# Wavefront OBJ file automatically generated by Tiled2Unity

# Vertices (Count = 335)
v 0 -1 0
v -1 -1 0
v -1 0 0
v 0 0 0
v -2 -1 0
v -2 0 0
v -3 -1 0
v -3 0 0
v -4 -1 0
v -4 0 0
v -5 -1 0
v -5 0 0
v -6 -1 0
v -6 0 0
v -7 -1 0
v -7 0 0
v -8 -1 0
v -8 0 0
v -9 -1 0
v -9 0 0
v -10 -1 0
v -10 0 0
v -11 -1 0
v -11 0 0
v -12 -1 0
v -12 0 0
v -13 -1 0
v -13 0 0
v -14 -1 0
v -14 0 0
v -15 -1 0
v -15 0 0
v -16 -1 0
v -16 0 0
v -17 -1 0
v -17 0 0
v -18 -1 0
v -18 0 0
v -19 -1 0
v -19 0 0
v -20 -1 0
v -20 0 0
v 0 -2 0
v -1 -2 0
v -2 -2 0
v -3 -2 0
v -4 -2 0
v -5 -2 0
v -6 -2 0
v -7 -2 0
v -8 -2 0
v -9 -2 0
v -10 -2 0
v -11 -2 0
v -12 -2 0
v -13 -2 0
v -14 -2 0
v -15 -2 0
v -16 -2 0
v -17 -2 0
v -18 -2 0
v -19 -2 0
v -20 -2 0
v 0 -3 0
v -1 -3 0
v -2 -3 0
v -3 -3 0
v 0 -4 0
v -1 -4 0
v -2 -4 0
v -3 -4 0
v 0 -5 0
v -1 -5 0
v -2 -5 0
v -3 -5 0
v 0 -6 0
v -1 -6 0
v -2 -6 0
v -3 -6 0
v -6 -6 0
v -7 -6 0
v -7 -5 0
v -6 -5 0
v -8 -6 0
v -8 -5 0
v -9 -6 0
v -9 -5 0
v -10 -6 0
v -10 -5 0
v -11 -6 0
v -11 -5 0
v -12 -6 0
v -12 -5 0
v -13 -6 0
v -13 -5 0
v -14 -6 0
v -14 -5 0
v -15 -6 0
v -15 -5 0
v -16 -6 0
v -16 -5 0
v -18 -6 0
v -19 -6 0
v -19 -5 0
v -18 -5 0
v -20 -6 0
v -20 -5 0
v -21 -6 0
v -21 -5 0
v 0 -7 0
v -1 -7 0
v -2 -7 0
v -3 -7 0
v -6 -7 0
v -7 -7 0
v -8 -7 0
v -9 -7 0
v -10 -7 0
v -11 -7 0
v -12 -7 0
v -13 -7 0
v -14 -7 0
v -15 -7 0
v -16 -7 0
v -18 -7 0
v -19 -7 0
v -20 -7 0
v -21 -7 0
v 0 -8 0
v -1 -8 0
v -2 -8 0
v -3 -8 0
v -6 -8 0
v -7 -8 0
v -8 -8 0
v -9 -8 0
v -10 -8 0
v -11 -8 0
v -12 -8 0
v -13 -8 0
v -14 -8 0
v -15 -8 0
v -16 -8 0
v -18 -8 0
v -19 -8 0
v -20 -8 0
v -21 -8 0
v 0 -9 0
v -1 -9 0
v -2 -9 0
v -3 -9 0
v -6 -9 0
v -7 -9 0
v -8 -9 0
v -9 -9 0
v -13 -9 0
v -14 -9 0
v -15 -9 0
v -16 -9 0
v -18 -9 0
v -19 -9 0
v -20 -9 0
v -21 -9 0
v 0 -10 0
v -1 -10 0
v -2 -10 0
v -3 -10 0
v -6 -10 0
v -7 -10 0
v -8 -10 0
v -9 -10 0
v -13 -10 0
v -14 -10 0
v -15 -10 0
v -16 -10 0
v -18 -10 0
v -19 -10 0
v -20 -10 0
v -21 -10 0
v 0 -11 0
v -1 -11 0
v -2 -11 0
v -3 -11 0
v -6 -11 0
v -7 -11 0
v -8 -11 0
v -9 -11 0
v -10 -11 0
v -10 -10 0
v -11 -11 0
v -11 -10 0
v -12 -11 0
v -12 -10 0
v -13 -11 0
v -14 -11 0
v -15 -11 0
v -16 -11 0
v -18 -11 0
v -19 -11 0
v -20 -11 0
v -21 -11 0
v 0 -12 0
v -1 -12 0
v -2 -12 0
v -3 -12 0
v -6 -12 0
v -7 -12 0
v -8 -12 0
v -9 -12 0
v -10 -12 0
v -11 -12 0
v -12 -12 0
v -13 -12 0
v -14 -12 0
v -15 -12 0
v -16 -12 0
v -18 -12 0
v -19 -12 0
v -20 -12 0
v -21 -12 0
v 0 -13 0
v -1 -13 0
v -2 -13 0
v -3 -13 0
v -6 -13 0
v -7 -13 0
v -8 -13 0
v -9 -13 0
v -10 -13 0
v -11 -13 0
v -12 -13 0
v -13 -13 0
v -14 -13 0
v -15 -13 0
v -16 -13 0
v -18 -13 0
v -19 -13 0
v -20 -13 0
v -21 -13 0
v 0 -14 0
v -1 -14 0
v -2 -14 0
v -3 -14 0
v -18 -14 0
v -19 -14 0
v -20 -14 0
v -21 -14 0
v 0 -15 0
v -1 -15 0
v -2 -15 0
v -3 -15 0
v -18 -15 0
v -19 -15 0
v -20 -15 0
v -21 -15 0
v 0 -16 0
v -1 -16 0
v -2 -16 0
v -3 -16 0
v -18 -16 0
v -19 -16 0
v -20 -16 0
v -21 -16 0
v 0 -17 0
v -1 -17 0
v -2 -17 0
v -3 -17 0
v -6 -17 0
v -7 -17 0
v -7 -16 0
v -6 -16 0
v -8 -17 0
v -8 -16 0
v -9 -17 0
v -9 -16 0
v -10 -17 0
v -10 -16 0
v -11 -17 0
v -11 -16 0
v -12 -17 0
v -12 -16 0
v -13 -17 0
v -13 -16 0
v -14 -17 0
v -14 -16 0
v -15 -17 0
v -15 -16 0
v -16 -17 0
v -16 -16 0
v -17 -17 0
v -17 -16 0
v -18 -17 0
v -19 -17 0
v -20 -17 0
v -21 -17 0
v 0 -18 0
v -1 -18 0
v -2 -18 0
v -3 -18 0
v -6 -18 0
v -7 -18 0
v -8 -18 0
v -9 -18 0
v -10 -18 0
v -11 -18 0
v -12 -18 0
v -13 -18 0
v -14 -18 0
v -15 -18 0
v -16 -18 0
v -17 -18 0
v -18 -18 0
v -19 -18 0
v -20 -18 0
v -21 -18 0
v 0 -19 0
v -1 -19 0
v -2 -19 0
v -3 -19 0
v -6 -19 0
v -7 -19 0
v -8 -19 0
v -9 -19 0
v -10 -19 0
v -11 -19 0
v -12 -19 0
v -13 -19 0
v -14 -19 0
v -15 -19 0
v -16 -19 0
v -17 -19 0
v -18 -19 0
v -19 -19 0
v -20 -19 0
v -21 -19 0

# Texture cooridinates (Count = 72)
vt 0.1093769 0.9687519
vt 0.1249981 0.9687519
vt 0.1249981 0.9843731
vt 0.1093769 0.9843731
vt 0.01562691 0.9531269
vt 0.03124809 0.9531269
vt 0.03124809 0.9687481
vt 0.01562691 0.9687481
vt 0.01562691 0.9687519
vt 0.03124809 0.9687519
vt 0.03124809 0.9843731
vt 0.01562691 0.9843731
vt 0.1093769 0.9531269
vt 0.1249981 0.9531269
vt 0.1249981 0.9687481
vt 0.1093769 0.9687481
vt 0.03125191 0.9687519
vt 0.04687309 0.9687519
vt 0.04687309 0.9843731
vt 0.03125191 0.9843731
vt 0.1250019 0.9531269
vt 0.1406231 0.9531269
vt 0.1406231 0.9687481
vt 0.1250019 0.9687481
vt 0.1250019 0.9687519
vt 0.1406231 0.9687519
vt 0.1406231 0.9843731
vt 0.1250019 0.9843731
vt 0.09375191 0.9843769
vt 0.1093731 0.9843769
vt 0.1093731 0.9999981
vt 0.09375191 0.9999981
vt 0.03125191 0.9375019
vt 0.04687309 0.9375019
vt 0.04687309 0.9531231
vt 0.03125191 0.9531231
vt 0.1093769 0.9843769
vt 0.1249981 0.9843769
vt 0.1249981 0.9999981
vt 0.1093769 0.9999981
vt 0.1250019 0.9843769
vt 0.1406231 0.9843769
vt 0.1406231 0.9999981
vt 0.1250019 0.9999981
vt 0.04687691 0.9531269
vt 0.06249809 0.9531269
vt 0.06249809 0.9687481
vt 0.04687691 0.9687481
vt 0.04687691 0.9687519
vt 0.06249809 0.9687519
vt 0.06249809 0.9843731
vt 0.04687691 0.9843731
vt 0.09375191 0.9687519
vt 0.1093731 0.9687519
vt 0.1093731 0.9843731
vt 0.09375191 0.9843731
vt 0.09375191 0.9531269
vt 0.1093731 0.9531269
vt 0.1093731 0.9687481
vt 0.09375191 0.9687481
vt 0.01562691 0.9375019
vt 0.03124809 0.9375019
vt 0.03124809 0.9531231
vt 0.01562691 0.9531231
vt 0.04687691 0.9375019
vt 0.06249809 0.9375019
vt 0.06249809 0.9531231
vt 0.04687691 0.9531231
vt 0.09375191 0.9218769
vt 0.1093731 0.9218769
vt 0.1093731 0.9374981
vt 0.09375191 0.9374981

# Normal
vn 0 0 -1

# Groups (Count = 2)

g mesh_0001
f 1/1/1 2/2/1 3/3/1 4/4/1
f 2/1/1 5/2/1 6/3/1 3/4/1
f 5/1/1 7/2/1 8/3/1 6/4/1
f 7/1/1 9/2/1 10/3/1 8/4/1
f 9/1/1 11/2/1 12/3/1 10/4/1
f 11/1/1 13/2/1 14/3/1 12/4/1
f 13/1/1 15/2/1 16/3/1 14/4/1
f 15/1/1 17/2/1 18/3/1 16/4/1
f 17/1/1 19/2/1 20/3/1 18/4/1
f 19/1/1 21/2/1 22/3/1 20/4/1
f 21/1/1 23/2/1 24/3/1 22/4/1
f 23/1/1 25/2/1 26/3/1 24/4/1
f 25/1/1 27/2/1 28/3/1 26/4/1
f 27/1/1 29/2/1 30/3/1 28/4/1
f 29/1/1 31/2/1 32/3/1 30/4/1
f 31/1/1 33/2/1 34/3/1 32/4/1
f 33/1/1 35/2/1 36/3/1 34/4/1
f 35/1/1 37/2/1 38/3/1 36/4/1
f 37/1/1 39/2/1 40/3/1 38/4/1
f 39/5/1 41/6/1 42/7/1 40/8/1
f 43/1/1 44/2/1 2/3/1 1/4/1
f 44/1/1 45/2/1 5/3/1 2/4/1
f 45/9/1 46/10/1 7/11/1 5/12/1
f 46/13/1 47/14/1 9/15/1 7/16/1
f 47/13/1 48/14/1 11/15/1 9/16/1
f 48/17/1 49/18/1 13/19/1 11/20/1
f 49/17/1 50/18/1 15/19/1 13/20/1
f 50/17/1 51/18/1 17/19/1 15/20/1
f 51/17/1 52/18/1 19/19/1 17/20/1
f 52/17/1 53/18/1 21/19/1 19/20/1
f 53/13/1 54/14/1 23/15/1 21/16/1
f 54/13/1 55/14/1 25/15/1 23/16/1
f 55/13/1 56/14/1 27/15/1 25/16/1
f 56/13/1 57/14/1 29/15/1 27/16/1
f 57/17/1 58/18/1 31/19/1 29/20/1
f 58/13/1 59/14/1 33/15/1 31/16/1
f 59/17/1 60/18/1 35/19/1 33/20/1
f 60/17/1 61/18/1 37/19/1 35/20/1
f 61/13/1 62/14/1 39/15/1 37/16/1
f 62/21/1 63/22/1 41/23/1 39/24/1
f 64/1/1 65/2/1 44/3/1 43/4/1
f 65/1/1 66/2/1 45/3/1 44/4/1
f 66/25/1 67/26/1 46/27/1 45/28/1
f 68/1/1 69/2/1 65/3/1 64/4/1
f 69/1/1 70/2/1 66/3/1 65/4/1
f 70/5/1 71/6/1 67/7/1 66/8/1
f 72/1/1 73/2/1 69/3/1 68/4/1
f 73/1/1 74/2/1 70/3/1 69/4/1
f 74/5/1 75/6/1 71/7/1 70/8/1
f 76/1/1 77/2/1 73/3/1 72/4/1
f 77/1/1 78/2/1 74/3/1 73/4/1
f 78/5/1 79/6/1 75/7/1 74/8/1
f 80/29/1 81/30/1 82/31/1 83/32/1
f 81/33/1 84/34/1 85/35/1 82/36/1
f 84/37/1 86/38/1 87/39/1 85/40/1
f 86/37/1 88/38/1 89/39/1 87/40/1
f 88/33/1 90/34/1 91/35/1 89/36/1
f 90/37/1 92/38/1 93/39/1 91/40/1
f 92/33/1 94/34/1 95/35/1 93/36/1
f 94/37/1 96/38/1 97/39/1 95/40/1
f 96/33/1 98/34/1 99/35/1 97/36/1
f 98/41/1 100/42/1 101/43/1 99/44/1
f 102/29/1 103/30/1 104/31/1 105/32/1
f 103/37/1 106/38/1 107/39/1 104/40/1
f 106/41/1 108/42/1 109/43/1 107/44/1
f 110/1/1 111/2/1 77/3/1 76/4/1
f 111/1/1 112/2/1 78/3/1 77/4/1
f 112/5/1 113/6/1 79/7/1 78/8/1
f 114/45/1 115/46/1 81/47/1 80/48/1
f 115/1/1 116/2/1 84/3/1 81/4/1
f 116/9/1 117/10/1 86/11/1 84/12/1
f 117/49/1 118/50/1 88/51/1 86/52/1
f 118/9/1 119/10/1 90/11/1 88/12/1
f 119/49/1 120/50/1 92/51/1 90/52/1
f 120/9/1 121/10/1 94/11/1 92/12/1
f 121/49/1 122/50/1 96/51/1 94/52/1
f 122/1/1 123/2/1 98/3/1 96/4/1
f 123/25/1 124/26/1 100/27/1 98/28/1
f 125/45/1 126/46/1 103/47/1 102/48/1
f 126/1/1 127/2/1 106/3/1 103/4/1
f 127/5/1 128/6/1 108/7/1 106/8/1
f 129/1/1 130/2/1 111/3/1 110/4/1
f 130/1/1 131/2/1 112/3/1 111/4/1
f 131/25/1 132/26/1 113/27/1 112/28/1
f 133/53/1 134/54/1 115/55/1 114/56/1
f 134/9/1 135/10/1 116/11/1 115/12/1
f 135/21/1 136/22/1 117/23/1 116/24/1
f 136/57/1 137/58/1 118/59/1 117/60/1
f 137/21/1 138/22/1 119/23/1 118/24/1
f 138/57/1 139/58/1 120/59/1 119/60/1
f 139/21/1 140/22/1 121/23/1 120/24/1
f 140/57/1 141/58/1 122/59/1 121/60/1
f 141/49/1 142/50/1 123/51/1 122/52/1
f 142/25/1 143/26/1 124/27/1 123/28/1
f 144/53/1 145/54/1 126/55/1 125/56/1
f 145/1/1 146/2/1 127/3/1 126/4/1
f 146/25/1 147/26/1 128/27/1 127/28/1
f 148/1/1 149/2/1 130/3/1 129/4/1
f 149/1/1 150/2/1 131/3/1 130/4/1
f 150/25/1 151/26/1 132/27/1 131/28/1
f 152/53/1 153/54/1 134/55/1 133/56/1
f 153/61/1 154/62/1 135/63/1 134/64/1
f 154/41/1 155/42/1 136/43/1 135/44/1
f 156/29/1 157/30/1 141/31/1 140/32/1
f 157/65/1 158/66/1 142/67/1 141/68/1
f 158/5/1 159/6/1 143/7/1 142/8/1
f 160/53/1 161/54/1 145/55/1 144/56/1
f 161/1/1 162/2/1 146/3/1 145/4/1
f 162/5/1 163/6/1 147/7/1 146/8/1
f 164/1/1 165/2/1 149/3/1 148/4/1
f 165/1/1 166/2/1 150/3/1 149/4/1
f 166/25/1 167/26/1 151/27/1 150/28/1
f 168/53/1 169/54/1 153/55/1 152/56/1
f 169/9/1 170/10/1 154/11/1 153/12/1
f 170/21/1 171/22/1 155/23/1 154/24/1
f 172/57/1 173/58/1 157/59/1 156/60/1
f 173/49/1 174/50/1 158/51/1 157/52/1
f 174/25/1 175/26/1 159/27/1 158/28/1
f 176/45/1 177/46/1 161/47/1 160/48/1
f 177/1/1 178/2/1 162/3/1 161/4/1
f 178/25/1 179/26/1 163/27/1 162/28/1
f 180/1/1 181/2/1 165/3/1 164/4/1
f 181/1/1 182/2/1 166/3/1 165/4/1
f 182/25/1 183/26/1 167/27/1 166/28/1
f 184/45/1 185/46/1 169/47/1 168/48/1
f 185/61/1 186/62/1 170/63/1 169/64/1
f 186/41/1 187/42/1 171/43/1 170/44/1
f 187/29/1 188/30/1 189/31/1 171/32/1
f 188/37/1 190/38/1 191/39/1 189/40/1
f 190/41/1 192/42/1 193/43/1 191/44/1
f 192/29/1 194/30/1 172/31/1 193/32/1
f 194/41/1 195/42/1 173/43/1 172/44/1
f 195/53/1 196/54/1 174/55/1 173/56/1
f 196/5/1 197/6/1 175/7/1 174/8/1
f 198/53/1 199/54/1 177/55/1 176/56/1
f 199/1/1 200/2/1 178/3/1 177/4/1
f 200/5/1 201/6/1 179/7/1 178/8/1
f 202/1/1 203/2/1 181/3/1 180/4/1
f 203/1/1 204/2/1 182/3/1 181/4/1
f 204/5/1 205/6/1 183/7/1 182/8/1
f 206/45/1 207/46/1 185/47/1 184/48/1
f 207/1/1 208/2/1 186/3/1 185/4/1
f 208/61/1 209/62/1 187/63/1 186/64/1
f 209/65/1 210/66/1 188/67/1 187/68/1
f 210/1/1 211/2/1 190/3/1 188/4/1
f 211/61/1 212/62/1 192/63/1 190/64/1
f 212/65/1 213/66/1 194/67/1 192/68/1
f 213/61/1 214/62/1 195/63/1 194/64/1
f 214/65/1 215/66/1 196/67/1 195/68/1
f 215/25/1 216/26/1 197/27/1 196/28/1
f 217/53/1 218/54/1 199/55/1 198/56/1
f 218/1/1 219/2/1 200/3/1 199/4/1
f 219/25/1 220/26/1 201/27/1 200/28/1
f 221/1/1 222/2/1 203/3/1 202/4/1
f 222/1/1 223/2/1 204/3/1 203/4/1
f 223/5/1 224/6/1 205/7/1 204/8/1
f 225/57/1 226/58/1 207/59/1 206/60/1
f 226/13/1 227/14/1 208/15/1 207/16/1
f 227/13/1 228/14/1 209/15/1 208/16/1
f 228/13/1 229/14/1 210/15/1 209/16/1
f 229/13/1 230/14/1 211/15/1 210/16/1
f 230/17/1 231/18/1 212/19/1 211/20/1
f 231/17/1 232/18/1 213/19/1 212/20/1
f 232/17/1 233/18/1 214/19/1 213/20/1
f 233/13/1 234/14/1 215/15/1 214/16/1
f 234/21/1 235/22/1 216/23/1 215/24/1
f 236/53/1 237/54/1 218/55/1 217/56/1
f 237/1/1 238/2/1 219/3/1 218/4/1
f 238/5/1 239/6/1 220/7/1 219/8/1
f 240/1/1 241/2/1 222/3/1 221/4/1
f 241/1/1 242/2/1 223/3/1 222/4/1
f 242/5/1 243/6/1 224/7/1 223/8/1
f 244/53/1 245/54/1 237/55/1 236/56/1
f 245/1/1 246/2/1 238/3/1 237/4/1
f 246/25/1 247/26/1 239/27/1 238/28/1
f 248/1/1 249/2/1 241/3/1 240/4/1
f 249/1/1 250/2/1 242/3/1 241/4/1
f 250/5/1 251/6/1 243/7/1 242/8/1
f 252/53/1 253/54/1 245/55/1 244/56/1
f 253/1/1 254/2/1 246/3/1 245/4/1
f 254/5/1 255/6/1 247/7/1 246/8/1
f 256/1/1 257/2/1 249/3/1 248/4/1
f 257/1/1 258/2/1 250/3/1 249/4/1
f 258/25/1 259/26/1 251/27/1 250/28/1
f 260/53/1 261/54/1 253/55/1 252/56/1
f 261/1/1 262/2/1 254/3/1 253/4/1
f 262/5/1 263/6/1 255/7/1 254/8/1
f 264/1/1 265/2/1 257/3/1 256/4/1
f 265/1/1 266/2/1 258/3/1 257/4/1
f 266/5/1 267/6/1 259/7/1 258/8/1
f 268/29/1 269/30/1 270/31/1 271/32/1
f 269/37/1 272/38/1 273/39/1 270/40/1
f 272/33/1 274/34/1 275/35/1 273/36/1
f 274/37/1 276/38/1 277/39/1 275/40/1
f 276/33/1 278/34/1 279/35/1 277/36/1
f 278/37/1 280/38/1 281/39/1 279/40/1
f 280/37/1 282/38/1 283/39/1 281/40/1
f 282/37/1 284/38/1 285/39/1 283/40/1
f 284/37/1 286/38/1 287/39/1 285/40/1
f 286/37/1 288/38/1 289/39/1 287/40/1
f 288/33/1 290/34/1 291/35/1 289/36/1
f 290/37/1 292/38/1 260/39/1 291/40/1
f 292/65/1 293/66/1 261/67/1 260/68/1
f 293/1/1 294/2/1 262/3/1 261/4/1
f 294/5/1 295/6/1 263/7/1 262/8/1
f 296/1/1 297/2/1 265/3/1 264/4/1
f 297/1/1 298/2/1 266/3/1 265/4/1
f 298/25/1 299/26/1 267/27/1 266/28/1
f 300/45/1 301/46/1 269/47/1 268/48/1
f 301/1/1 302/2/1 272/3/1 269/4/1
f 302/1/1 303/2/1 274/3/1 272/4/1
f 303/1/1 304/2/1 276/3/1 274/4/1
f 304/1/1 305/2/1 278/3/1 276/4/1
f 305/1/1 306/2/1 280/3/1 278/4/1
f 306/1/1 307/2/1 282/3/1 280/4/1
f 307/1/1 308/2/1 284/3/1 282/4/1
f 308/1/1 309/2/1 286/3/1 284/4/1
f 309/1/1 310/2/1 288/3/1 286/4/1
f 310/1/1 311/2/1 290/3/1 288/4/1
f 311/1/1 312/2/1 292/3/1 290/4/1
f 312/1/1 313/2/1 293/3/1 292/4/1
f 313/1/1 314/2/1 294/3/1 293/4/1
f 314/25/1 315/26/1 295/27/1 294/28/1
f 316/13/1 317/14/1 297/15/1 296/16/1
f 317/13/1 318/14/1 298/15/1 297/16/1
f 318/21/1 319/22/1 299/23/1 298/24/1
f 320/57/1 321/58/1 301/59/1 300/60/1
f 321/13/1 322/14/1 302/15/1 301/16/1
f 322/13/1 323/14/1 303/15/1 302/16/1
f 323/13/1 324/14/1 304/15/1 303/16/1
f 324/13/1 325/14/1 305/15/1 304/16/1
f 325/17/1 326/18/1 306/19/1 305/20/1
f 326/13/1 327/14/1 307/15/1 306/16/1
f 327/13/1 328/14/1 308/15/1 307/16/1
f 328/13/1 329/14/1 309/15/1 308/16/1
f 329/13/1 330/14/1 310/15/1 309/16/1
f 330/17/1 331/18/1 311/19/1 310/20/1
f 331/17/1 332/18/1 312/19/1 311/20/1
f 332/13/1 333/14/1 313/15/1 312/16/1
f 333/17/1 334/18/1 314/19/1 313/20/1
f 334/21/1 335/22/1 315/23/1 314/24/1

g mesh_0002
f 39/69/1 41/70/1 42/71/1 40/72/1
f 45/69/1 46/70/1 7/71/1 5/72/1
f 46/69/1 47/70/1 9/71/1 7/72/1
f 47/69/1 48/70/1 11/71/1 9/72/1
f 48/69/1 49/70/1 13/71/1 11/72/1
f 49/69/1 50/70/1 15/71/1 13/72/1
f 50/69/1 51/70/1 17/71/1 15/72/1
f 51/69/1 52/70/1 19/71/1 17/72/1
f 52/69/1 53/70/1 21/71/1 19/72/1
f 53/69/1 54/70/1 23/71/1 21/72/1
f 54/69/1 55/70/1 25/71/1 23/72/1
f 55/69/1 56/70/1 27/71/1 25/72/1
f 56/69/1 57/70/1 29/71/1 27/72/1
f 57/69/1 58/70/1 31/71/1 29/72/1
f 58/69/1 59/70/1 33/71/1 31/72/1
f 59/69/1 60/70/1 35/71/1 33/72/1
f 60/69/1 61/70/1 37/71/1 35/72/1
f 61/69/1 62/70/1 39/71/1 37/72/1
f 62/69/1 63/70/1 41/71/1 39/72/1
f 66/69/1 67/70/1 46/71/1 45/72/1
f 70/69/1 71/70/1 67/71/1 66/72/1
f 74/69/1 75/70/1 71/71/1 70/72/1
f 78/69/1 79/70/1 75/71/1 74/72/1
f 80/69/1 81/70/1 82/71/1 83/72/1
f 81/69/1 84/70/1 85/71/1 82/72/1
f 84/69/1 86/70/1 87/71/1 85/72/1
f 86/69/1 88/70/1 89/71/1 87/72/1
f 88/69/1 90/70/1 91/71/1 89/72/1
f 90/69/1 92/70/1 93/71/1 91/72/1
f 92/69/1 94/70/1 95/71/1 93/72/1
f 94/69/1 96/70/1 97/71/1 95/72/1
f 96/69/1 98/70/1 99/71/1 97/72/1
f 98/69/1 100/70/1 101/71/1 99/72/1
f 102/69/1 103/70/1 104/71/1 105/72/1
f 103/69/1 106/70/1 107/71/1 104/72/1
f 106/69/1 108/70/1 109/71/1 107/72/1
f 112/69/1 113/70/1 79/71/1 78/72/1
f 114/69/1 115/70/1 81/71/1 80/72/1
f 123/69/1 124/70/1 100/71/1 98/72/1
f 125/69/1 126/70/1 103/71/1 102/72/1
f 127/69/1 128/70/1 108/71/1 106/72/1
f 131/69/1 132/70/1 113/71/1 112/72/1
f 133/69/1 134/70/1 115/71/1 114/72/1
f 136/69/1 137/70/1 118/71/1 117/72/1
f 137/69/1 138/70/1 119/71/1 118/72/1
f 138/69/1 139/70/1 120/71/1 119/72/1
f 139/69/1 140/70/1 121/71/1 120/72/1
f 142/69/1 143/70/1 124/71/1 123/72/1
f 144/69/1 145/70/1 126/71/1 125/72/1
f 146/69/1 147/70/1 128/71/1 127/72/1
f 150/69/1 151/70/1 132/71/1 131/72/1
f 152/69/1 153/70/1 134/71/1 133/72/1
f 154/69/1 155/70/1 136/71/1 135/72/1
f 156/69/1 157/70/1 141/71/1 140/72/1
f 158/69/1 159/70/1 143/71/1 142/72/1
f 160/69/1 161/70/1 145/71/1 144/72/1
f 162/69/1 163/70/1 147/71/1 146/72/1
f 166/69/1 167/70/1 151/71/1 150/72/1
f 168/69/1 169/70/1 153/71/1 152/72/1
f 170/69/1 171/70/1 155/71/1 154/72/1
f 172/69/1 173/70/1 157/71/1 156/72/1
f 174/69/1 175/70/1 159/71/1 158/72/1
f 176/69/1 177/70/1 161/71/1 160/72/1
f 178/69/1 179/70/1 163/71/1 162/72/1
f 182/69/1 183/70/1 167/71/1 166/72/1
f 184/69/1 185/70/1 169/71/1 168/72/1
f 187/69/1 188/70/1 189/71/1 171/72/1
f 188/69/1 190/70/1 191/71/1 189/72/1
f 190/69/1 192/70/1 193/71/1 191/72/1
f 192/69/1 194/70/1 172/71/1 193/72/1
f 196/69/1 197/70/1 175/71/1 174/72/1
f 198/69/1 199/70/1 177/71/1 176/72/1
f 200/69/1 201/70/1 179/71/1 178/72/1
f 204/69/1 205/70/1 183/71/1 182/72/1
f 206/69/1 207/70/1 185/71/1 184/72/1
f 215/69/1 216/70/1 197/71/1 196/72/1
f 217/69/1 218/70/1 199/71/1 198/72/1
f 219/69/1 220/70/1 201/71/1 200/72/1
f 223/69/1 224/70/1 205/71/1 204/72/1
f 225/69/1 226/70/1 207/71/1 206/72/1
f 226/69/1 227/70/1 208/71/1 207/72/1
f 227/69/1 228/70/1 209/71/1 208/72/1
f 228/69/1 229/70/1 210/71/1 209/72/1
f 229/69/1 230/70/1 211/71/1 210/72/1
f 230/69/1 231/70/1 212/71/1 211/72/1
f 231/69/1 232/70/1 213/71/1 212/72/1
f 232/69/1 233/70/1 214/71/1 213/72/1
f 233/69/1 234/70/1 215/71/1 214/72/1
f 234/69/1 235/70/1 216/71/1 215/72/1
f 236/69/1 237/70/1 218/71/1 217/72/1
f 238/69/1 239/70/1 220/71/1 219/72/1
f 242/69/1 243/70/1 224/71/1 223/72/1
f 244/69/1 245/70/1 237/71/1 236/72/1
f 246/69/1 247/70/1 239/71/1 238/72/1
f 250/69/1 251/70/1 243/71/1 242/72/1
f 252/69/1 253/70/1 245/71/1 244/72/1
f 254/69/1 255/70/1 247/71/1 246/72/1
f 258/69/1 259/70/1 251/71/1 250/72/1
f 260/69/1 261/70/1 253/71/1 252/72/1
f 262/69/1 263/70/1 255/71/1 254/72/1
f 266/69/1 267/70/1 259/71/1 258/72/1
f 268/69/1 269/70/1 270/71/1 271/72/1
f 269/69/1 272/70/1 273/71/1 270/72/1
f 272/69/1 274/70/1 275/71/1 273/72/1
f 274/69/1 276/70/1 277/71/1 275/72/1
f 276/69/1 278/70/1 279/71/1 277/72/1
f 278/69/1 280/70/1 281/71/1 279/72/1
f 280/69/1 282/70/1 283/71/1 281/72/1
f 282/69/1 284/70/1 285/71/1 283/72/1
f 284/69/1 286/70/1 287/71/1 285/72/1
f 286/69/1 288/70/1 289/71/1 287/72/1
f 288/69/1 290/70/1 291/71/1 289/72/1
f 290/69/1 292/70/1 260/71/1 291/72/1
f 292/69/1 293/70/1 261/71/1 260/72/1
f 294/69/1 295/70/1 263/71/1 262/72/1
f 298/69/1 299/70/1 267/71/1 266/72/1
f 300/69/1 301/70/1 269/71/1 268/72/1
f 314/69/1 315/70/1 295/71/1 294/72/1
f 316/69/1 317/70/1 297/71/1 296/72/1
f 317/69/1 318/70/1 298/71/1 297/72/1
f 318/69/1 319/70/1 299/71/1 298/72/1
f 320/69/1 321/70/1 301/71/1 300/72/1
f 321/69/1 322/70/1 302/71/1 301/72/1
f 322/69/1 323/70/1 303/71/1 302/72/1
f 323/69/1 324/70/1 304/71/1 303/72/1
f 324/69/1 325/70/1 305/71/1 304/72/1
f 325/69/1 326/70/1 306/71/1 305/72/1
f 326/69/1 327/70/1 307/71/1 306/72/1
f 327/69/1 328/70/1 308/71/1 307/72/1
f 328/69/1 329/70/1 309/71/1 308/72/1
f 329/69/1 330/70/1 310/71/1 309/72/1
f 330/69/1 331/70/1 311/71/1 310/72/1
f 331/69/1 332/70/1 312/71/1 311/72/1
f 332/69/1 333/70/1 313/71/1 312/72/1
f 333/69/1 334/70/1 314/71/1 313/72/1
f 334/69/1 335/70/1 315/71/1 314/72/1

