# Wavefront OBJ file automatically generated by Tiled2Unity

# Vertices (Count = 190)
v -186 -201 0
v -187 -201 0
v -187 -200 0
v -186 -200 0
v -188 -201 0
v -188 -200 0
v -189 -201 0
v -189 -200 0
v -190 -201 0
v -190 -200 0
v -191 -201 0
v -191 -200 0
v -192 -201 0
v -192 -200 0
v -193 -201 0
v -193 -200 0
v -194 -201 0
v -194 -200 0
v -195 -201 0
v -195 -200 0
v -196 -201 0
v -196 -200 0
v -197 -201 0
v -197 -200 0
v -198 -201 0
v -198 -200 0
v -186 -202 0
v -187 -202 0
v -188 -202 0
v -189 -202 0
v -190 -202 0
v -191 -202 0
v -192 -202 0
v -193 -202 0
v -194 -202 0
v -195 -202 0
v -196 -202 0
v -197 -202 0
v -198 -202 0
v -186 -203 0
v -187 -203 0
v -188 -203 0
v -189 -203 0
v -190 -203 0
v -191 -203 0
v -192 -203 0
v -193 -203 0
v -194 -203 0
v -195 -203 0
v -196 -203 0
v -197 -203 0
v -198 -203 0
v -186 -204 0
v -187 -204 0
v -188 -204 0
v -189 -204 0
v -190 -204 0
v -191 -204 0
v -192 -204 0
v -193 -204 0
v -194 -204 0
v -195 -204 0
v -196 -204 0
v -197 -204 0
v -198 -204 0
v -186 -205 0
v -187 -205 0
v -188 -205 0
v -189 -205 0
v -190 -205 0
v -191 -205 0
v -192 -205 0
v -193 -205 0
v -194 -205 0
v -195 -205 0
v -196 -205 0
v -197 -205 0
v -198 -205 0
v -186 -206 0
v -187 -206 0
v -188 -206 0
v -189 -206 0
v -190 -206 0
v -191 -206 0
v -192 -206 0
v -193 -206 0
v -194 -206 0
v -195 -206 0
v -196 -206 0
v -197 -206 0
v -198 -206 0
v -186 -207 0
v -187 -207 0
v -188 -207 0
v -189 -207 0
v -190 -207 0
v -191 -207 0
v -192 -207 0
v -193 -207 0
v -194 -207 0
v -195 -207 0
v -196 -207 0
v -197 -207 0
v -198 -207 0
v -186 -208 0
v -187 -208 0
v -188 -208 0
v -189 -208 0
v -190 -208 0
v -191 -208 0
v -192 -208 0
v -193 -208 0
v -194 -208 0
v -195 -208 0
v -196 -208 0
v -197 -208 0
v -198 -208 0
v -186 -209 0
v -187 -209 0
v -188 -209 0
v -189 -209 0
v -190 -209 0
v -191 -209 0
v -192 -209 0
v -193 -209 0
v -194 -209 0
v -195 -209 0
v -196 -209 0
v -197 -209 0
v -198 -209 0
v -186 -210 0
v -187 -210 0
v -188 -210 0
v -189 -210 0
v -190 -210 0
v -191 -210 0
v -192 -210 0
v -193 -210 0
v -194 -210 0
v -195 -210 0
v -196 -210 0
v -197 -210 0
v -198 -210 0
v -186 -211 0
v -187 -211 0
v -188 -211 0
v -189 -211 0
v -190 -211 0
v -191 -211 0
v -192 -211 0
v -193 -211 0
v -194 -211 0
v -195 -211 0
v -196 -211 0
v -197 -211 0
v -198 -211 0
v -189 -212 0
v -190 -212 0
v -191 -212 0
v -192 -212 0
v -193 -212 0
v -194 -212 0
v -195 -212 0
v -189 -213 0
v -190 -213 0
v -191 -213 0
v -192 -213 0
v -193 -213 0
v -194 -213 0
v -195 -213 0
v -189 -214 0
v -190 -214 0
v -191 -214 0
v -192 -214 0
v -193 -214 0
v -194 -214 0
v -195 -214 0
v -187 -199 0
v -186 -199 0
v -188 -199 0
v -189 -199 0
v -190 -199 0
v -191 -199 0
v -192 -199 0
v -193 -199 0
v -194 -199 0
v -195 -199 0
v -196 -199 0
v -197 -199 0
v -198 -199 0

# Texture cooridinates (Count = 56)
vt 0.7500038 0.5937538
vt 0.7812462 0.5937538
vt 0.7812462 0.6249962
vt 0.7500038 0.6249962
vt 0.6875038 0.5937538
vt 0.7187462 0.5937538
vt 0.7187462 0.6249962
vt 0.6875038 0.6249962
vt 0.6875038 0.5625038
vt 0.7187462 0.5625038
vt 0.7187462 0.5937462
vt 0.6875038 0.5937462
vt 0.7812538 0.5625038
vt 0.8124962 0.5625038
vt 0.8124962 0.5937462
vt 0.7812538 0.5937462
vt 0.8125038 0.5625038
vt 0.8437462 0.5625038
vt 0.8437462 0.5937462
vt 0.8125038 0.5937462
vt 0.8437538 0.5625038
vt 0.8749962 0.5625038
vt 0.8749962 0.5937462
vt 0.8437538 0.5937462
vt 0.7187538 0.4687538
vt 0.7499962 0.4687538
vt 0.7499962 0.4999962
vt 0.7187538 0.4999962
vt 0.8750038 0.4687538
vt 0.9062462 0.4687538
vt 0.9062462 0.4999962
vt 0.8750038 0.4999962
vt 0.7187538 0.4375038
vt 0.7499962 0.4375038
vt 0.7499962 0.4687462
vt 0.7187538 0.4687462
vt 0.7500038 0.4375038
vt 0.7812462 0.4375038
vt 0.7812462 0.4687462
vt 0.7500038 0.4687462
vt 0.7812538 0.4375038
vt 0.8124962 0.4375038
vt 0.8124962 0.4687462
vt 0.7812538 0.4687462
vt 0.8437538 0.4375038
vt 0.8749962 0.4375038
vt 0.8749962 0.4687462
vt 0.8437538 0.4687462
vt 0.8750038 0.4375038
vt 0.9062462 0.4375038
vt 0.9062462 0.4687462
vt 0.8750038 0.4687462
vt 0.8125038 0.4062538
vt 0.8437462 0.4062538
vt 0.8437462 0.4374962
vt 0.8125038 0.4374962

# Normal
vn 0 0 -1

# Groups (Count = 4)

g mesh_0001
f 1/1/1 2/2/1 3/3/1 4/4/1
f 2/1/1 5/2/1 6/3/1 3/4/1
f 5/1/1 7/2/1 8/3/1 6/4/1
f 7/1/1 9/2/1 10/3/1 8/4/1
f 9/1/1 11/2/1 12/3/1 10/4/1
f 11/1/1 13/2/1 14/3/1 12/4/1
f 13/1/1 15/2/1 16/3/1 14/4/1
f 15/1/1 17/2/1 18/3/1 16/4/1
f 17/1/1 19/2/1 20/3/1 18/4/1
f 19/1/1 21/2/1 22/3/1 20/4/1
f 21/1/1 23/2/1 24/3/1 22/4/1
f 23/1/1 25/2/1 26/3/1 24/4/1
f 27/1/1 28/2/1 2/3/1 1/4/1
f 28/1/1 29/2/1 5/3/1 2/4/1
f 29/1/1 30/2/1 7/3/1 5/4/1
f 30/1/1 31/2/1 9/3/1 7/4/1
f 31/1/1 32/2/1 11/3/1 9/4/1
f 32/1/1 33/2/1 13/3/1 11/4/1
f 33/1/1 34/2/1 15/3/1 13/4/1
f 34/1/1 35/2/1 17/3/1 15/4/1
f 35/1/1 36/2/1 19/3/1 17/4/1
f 36/1/1 37/2/1 21/3/1 19/4/1
f 37/1/1 38/2/1 23/3/1 21/4/1
f 38/1/1 39/2/1 25/3/1 23/4/1
f 40/1/1 41/2/1 28/3/1 27/4/1
f 41/1/1 42/2/1 29/3/1 28/4/1
f 42/1/1 43/2/1 30/3/1 29/4/1
f 43/1/1 44/2/1 31/3/1 30/4/1
f 44/1/1 45/2/1 32/3/1 31/4/1
f 45/1/1 46/2/1 33/3/1 32/4/1
f 46/1/1 47/2/1 34/3/1 33/4/1
f 47/1/1 48/2/1 35/3/1 34/4/1
f 48/1/1 49/2/1 36/3/1 35/4/1
f 49/1/1 50/2/1 37/3/1 36/4/1
f 50/1/1 51/2/1 38/3/1 37/4/1
f 51/1/1 52/2/1 39/3/1 38/4/1
f 53/1/1 54/2/1 41/3/1 40/4/1
f 54/1/1 55/2/1 42/3/1 41/4/1
f 55/1/1 56/2/1 43/3/1 42/4/1
f 56/1/1 57/2/1 44/3/1 43/4/1
f 57/1/1 58/2/1 45/3/1 44/4/1
f 58/1/1 59/2/1 46/3/1 45/4/1
f 59/1/1 60/2/1 47/3/1 46/4/1
f 60/1/1 61/2/1 48/3/1 47/4/1
f 61/1/1 62/2/1 49/3/1 48/4/1
f 62/1/1 63/2/1 50/3/1 49/4/1
f 63/1/1 64/2/1 51/3/1 50/4/1
f 64/1/1 65/2/1 52/3/1 51/4/1
f 66/1/1 67/2/1 54/3/1 53/4/1
f 67/1/1 68/2/1 55/3/1 54/4/1
f 68/1/1 69/2/1 56/3/1 55/4/1
f 69/1/1 70/2/1 57/3/1 56/4/1
f 70/1/1 71/2/1 58/3/1 57/4/1
f 71/1/1 72/2/1 59/3/1 58/4/1
f 72/1/1 73/2/1 60/3/1 59/4/1
f 73/1/1 74/2/1 61/3/1 60/4/1
f 74/1/1 75/2/1 62/3/1 61/4/1
f 75/1/1 76/2/1 63/3/1 62/4/1
f 76/1/1 77/2/1 64/3/1 63/4/1
f 77/1/1 78/2/1 65/3/1 64/4/1
f 79/1/1 80/2/1 67/3/1 66/4/1
f 80/1/1 81/2/1 68/3/1 67/4/1
f 81/1/1 82/2/1 69/3/1 68/4/1
f 82/1/1 83/2/1 70/3/1 69/4/1
f 83/1/1 84/2/1 71/3/1 70/4/1
f 84/1/1 85/2/1 72/3/1 71/4/1
f 85/1/1 86/2/1 73/3/1 72/4/1
f 86/1/1 87/2/1 74/3/1 73/4/1
f 87/1/1 88/2/1 75/3/1 74/4/1
f 88/1/1 89/2/1 76/3/1 75/4/1
f 89/1/1 90/2/1 77/3/1 76/4/1
f 90/1/1 91/2/1 78/3/1 77/4/1
f 92/1/1 93/2/1 80/3/1 79/4/1
f 93/1/1 94/2/1 81/3/1 80/4/1
f 94/1/1 95/2/1 82/3/1 81/4/1
f 95/1/1 96/2/1 83/3/1 82/4/1
f 96/1/1 97/2/1 84/3/1 83/4/1
f 97/1/1 98/2/1 85/3/1 84/4/1
f 98/1/1 99/2/1 86/3/1 85/4/1
f 99/1/1 100/2/1 87/3/1 86/4/1
f 100/1/1 101/2/1 88/3/1 87/4/1
f 101/1/1 102/2/1 89/3/1 88/4/1
f 102/1/1 103/2/1 90/3/1 89/4/1
f 103/1/1 104/2/1 91/3/1 90/4/1
f 105/1/1 106/2/1 93/3/1 92/4/1
f 106/1/1 107/2/1 94/3/1 93/4/1
f 107/1/1 108/2/1 95/3/1 94/4/1
f 108/1/1 109/2/1 96/3/1 95/4/1
f 109/1/1 110/2/1 97/3/1 96/4/1
f 110/1/1 111/2/1 98/3/1 97/4/1
f 111/1/1 112/2/1 99/3/1 98/4/1
f 112/1/1 113/2/1 100/3/1 99/4/1
f 113/1/1 114/2/1 101/3/1 100/4/1
f 114/1/1 115/2/1 102/3/1 101/4/1
f 115/1/1 116/2/1 103/3/1 102/4/1
f 116/1/1 117/2/1 104/3/1 103/4/1
f 118/1/1 119/2/1 106/3/1 105/4/1
f 119/1/1 120/2/1 107/3/1 106/4/1
f 120/1/1 121/2/1 108/3/1 107/4/1
f 121/1/1 122/2/1 109/3/1 108/4/1
f 122/1/1 123/2/1 110/3/1 109/4/1
f 123/1/1 124/2/1 111/3/1 110/4/1
f 124/1/1 125/2/1 112/3/1 111/4/1
f 125/1/1 126/2/1 113/3/1 112/4/1
f 126/1/1 127/2/1 114/3/1 113/4/1
f 127/1/1 128/2/1 115/3/1 114/4/1
f 128/1/1 129/2/1 116/3/1 115/4/1
f 129/1/1 130/2/1 117/3/1 116/4/1
f 131/1/1 132/2/1 119/3/1 118/4/1
f 132/1/1 133/2/1 120/3/1 119/4/1
f 133/1/1 134/2/1 121/3/1 120/4/1
f 134/1/1 135/2/1 122/3/1 121/4/1
f 135/1/1 136/2/1 123/3/1 122/4/1
f 136/1/1 137/2/1 124/3/1 123/4/1
f 137/1/1 138/2/1 125/3/1 124/4/1
f 138/1/1 139/2/1 126/3/1 125/4/1
f 139/1/1 140/2/1 127/3/1 126/4/1
f 140/1/1 141/2/1 128/3/1 127/4/1
f 141/1/1 142/2/1 129/3/1 128/4/1
f 142/1/1 143/2/1 130/3/1 129/4/1
f 144/1/1 145/2/1 132/3/1 131/4/1
f 145/1/1 146/2/1 133/3/1 132/4/1
f 146/1/1 147/2/1 134/3/1 133/4/1
f 147/1/1 148/2/1 135/3/1 134/4/1
f 148/1/1 149/2/1 136/3/1 135/4/1
f 149/1/1 150/2/1 137/3/1 136/4/1
f 150/1/1 151/2/1 138/3/1 137/4/1
f 151/1/1 152/2/1 139/3/1 138/4/1
f 152/1/1 153/2/1 140/3/1 139/4/1
f 153/1/1 154/2/1 141/3/1 140/4/1
f 154/1/1 155/2/1 142/3/1 141/4/1
f 155/1/1 156/2/1 143/3/1 142/4/1
f 157/1/1 158/2/1 148/3/1 147/4/1
f 158/1/1 159/2/1 149/3/1 148/4/1
f 159/1/1 160/2/1 150/3/1 149/4/1
f 160/1/1 161/2/1 151/3/1 150/4/1
f 161/1/1 162/2/1 152/3/1 151/4/1
f 162/1/1 163/2/1 153/3/1 152/4/1
f 164/1/1 165/2/1 158/3/1 157/4/1
f 165/1/1 166/2/1 159/3/1 158/4/1
f 166/1/1 167/2/1 160/3/1 159/4/1
f 167/1/1 168/2/1 161/3/1 160/4/1
f 168/1/1 169/2/1 162/3/1 161/4/1
f 169/1/1 170/2/1 163/3/1 162/4/1
f 171/1/1 172/2/1 165/3/1 164/4/1
f 172/1/1 173/2/1 166/3/1 165/4/1
f 173/1/1 174/2/1 167/3/1 166/4/1
f 174/1/1 175/2/1 168/3/1 167/4/1
f 175/1/1 176/2/1 169/3/1 168/4/1
f 176/1/1 177/2/1 170/3/1 169/4/1

g mesh_0002
f 4/5/1 3/6/1 178/7/1 179/8/1
f 3/5/1 6/6/1 180/7/1 178/8/1
f 6/5/1 8/6/1 181/7/1 180/8/1
f 8/5/1 10/6/1 182/7/1 181/8/1
f 10/5/1 12/6/1 183/7/1 182/8/1
f 12/5/1 14/6/1 184/7/1 183/8/1
f 14/5/1 16/6/1 185/7/1 184/8/1
f 16/5/1 18/6/1 186/7/1 185/8/1
f 18/5/1 20/6/1 187/7/1 186/8/1
f 20/5/1 22/6/1 188/7/1 187/8/1
f 22/5/1 24/6/1 189/7/1 188/8/1
f 24/5/1 26/6/1 190/7/1 189/8/1
f 1/9/1 2/10/1 3/11/1 4/12/1
f 2/9/1 5/10/1 6/11/1 3/12/1
f 5/9/1 7/10/1 8/11/1 6/12/1
f 7/9/1 9/10/1 10/11/1 8/12/1
f 9/9/1 11/10/1 12/11/1 10/12/1
f 11/9/1 13/10/1 14/11/1 12/12/1
f 13/9/1 15/10/1 16/11/1 14/12/1
f 15/9/1 17/10/1 18/11/1 16/12/1
f 17/9/1 19/10/1 20/11/1 18/12/1
f 19/9/1 21/10/1 22/11/1 20/12/1
f 21/9/1 23/10/1 24/11/1 22/12/1
f 23/9/1 25/10/1 26/11/1 24/12/1

g mesh_0003
f 4/13/1 3/14/1 178/15/1 179/16/1
f 3/17/1 6/18/1 180/19/1 178/20/1
f 6/17/1 8/18/1 181/19/1 180/20/1
f 8/17/1 10/18/1 182/19/1 181/20/1
f 10/17/1 12/18/1 183/19/1 182/20/1
f 12/17/1 14/18/1 184/19/1 183/20/1
f 14/17/1 16/18/1 185/19/1 184/20/1
f 16/17/1 18/18/1 186/19/1 185/20/1
f 18/17/1 20/18/1 187/19/1 186/20/1
f 20/17/1 22/18/1 188/19/1 187/20/1
f 22/17/1 24/18/1 189/19/1 188/20/1
f 24/21/1 26/22/1 190/23/1 189/24/1
f 1/25/1 2/26/1 3/27/1 4/28/1
f 23/29/1 25/30/1 26/31/1 24/32/1
f 27/25/1 28/26/1 2/27/1 1/28/1
f 38/29/1 39/30/1 25/31/1 23/32/1
f 40/25/1 41/26/1 28/27/1 27/28/1
f 51/29/1 52/30/1 39/31/1 38/32/1
f 53/25/1 54/26/1 41/27/1 40/28/1
f 64/29/1 65/30/1 52/31/1 51/32/1
f 66/25/1 67/26/1 54/27/1 53/28/1
f 77/29/1 78/30/1 65/31/1 64/32/1
f 79/25/1 80/26/1 67/27/1 66/28/1
f 90/29/1 91/30/1 78/31/1 77/32/1
f 92/25/1 93/26/1 80/27/1 79/28/1
f 103/29/1 104/30/1 91/31/1 90/32/1
f 105/25/1 106/26/1 93/27/1 92/28/1
f 116/29/1 117/30/1 104/31/1 103/32/1
f 118/25/1 119/26/1 106/27/1 105/28/1
f 129/29/1 130/30/1 117/31/1 116/32/1
f 131/25/1 132/26/1 119/27/1 118/28/1
f 142/29/1 143/30/1 130/31/1 129/32/1
f 144/33/1 145/34/1 132/35/1 131/36/1
f 145/37/1 146/38/1 133/39/1 132/40/1
f 146/37/1 147/38/1 134/39/1 133/40/1
f 147/41/1 148/42/1 135/43/1 134/44/1
f 152/45/1 153/46/1 140/47/1 139/48/1
f 153/37/1 154/38/1 141/39/1 140/40/1
f 154/37/1 155/38/1 142/39/1 141/40/1
f 155/49/1 156/50/1 143/51/1 142/52/1
f 157/25/1 158/26/1 148/27/1 147/28/1
f 162/29/1 163/30/1 153/31/1 152/32/1
f 164/25/1 165/26/1 158/27/1 157/28/1
f 169/29/1 170/30/1 163/31/1 162/32/1
f 171/33/1 172/34/1 165/35/1 164/36/1
f 172/53/1 173/54/1 166/55/1 165/56/1
f 173/53/1 174/54/1 167/55/1 166/56/1
f 174/53/1 175/54/1 168/55/1 167/56/1
f 175/53/1 176/54/1 169/55/1 168/56/1
f 176/49/1 177/50/1 170/51/1 169/52/1

